<?xml version="1.0" encoding="UTF-8" standalone="no"?>
<svg
   xmlns:dc="http://purl.org/dc/elements/1.1/"
   xmlns:cc="http://creativecommons.org/ns#"
   xmlns:rdf="http://www.w3.org/1999/02/22-rdf-syntax-ns#"
   xmlns:svg="http://www.w3.org/2000/svg"
   xmlns="http://www.w3.org/2000/svg"
   xmlns:sodipodi="http://sodipodi.sourceforge.net/DTD/sodipodi-0.dtd"
   xmlns:inkscape="http://www.inkscape.org/namespaces/inkscape"
   version="1.1"
   id="Capa_1"
   x="0px"
   y="0px"
   viewBox="0 0 1508.1229 248.276"
   xml:space="preserve"
   sodipodi:docname="check-svgrepo-com.svg"
   width="1508.1229"
   height="248.276"
   inkscape:version="1.0 (4035a4fb49, 2020-05-01)"><metadata
   id="metadata41"><rdf:RDF><cc:Work
       rdf:about=""><dc:format>image/svg+xml</dc:format><dc:type
         rdf:resource="http://purl.org/dc/dcmitype/StillImage" /><dc:title></dc:title></cc:Work></rdf:RDF></metadata><defs
   id="defs39"><rect
     id="rect848"
     height="300.09363"
     width="1298.166"
     y="65.942001"
     x="350.45987" /></defs><sodipodi:namedview
   inkscape:document-rotation="0"
   pagecolor="#ffffff"
   bordercolor="#666666"
   borderopacity="1"
   objecttolerance="10"
   gridtolerance="10"
   guidetolerance="10"
   inkscape:pageopacity="0"
   inkscape:pageshadow="2"
   inkscape:window-width="1694"
   inkscape:window-height="892"
   id="namedview37"
   showgrid="false"
   fit-margin-top="0"
   fit-margin-left="0"
   fit-margin-right="0"
   fit-margin-bottom="0"
   inkscape:zoom="0.47616618"
   inkscape:cx="659.86626"
   inkscape:cy="281.40379"
   inkscape:window-x="125"
   inkscape:window-y="72"
   inkscape:window-maximized="0"
   inkscape:current-layer="g4" />
<g
   id="g4"
   transform="translate(1.2501185e-4,-24.362)">
	<path
   d="M 294.033,82.033 239.358,27.332 c -1.899,-1.901 -4.479,-2.97 -7.167,-2.97 -2.688,0 -5.268,1.068 -7.168,2.97 L 113.636,138.765 71.975,97.09 c -1.901,-1.9 -4.479,-2.969 -7.169,-2.969 -2.688,0 -5.267,1.069 -7.167,2.97 L 2.966,151.794 c -3.955,3.958 -3.955,10.372 10e-4,14.329 l 103.501,103.545 c 1.9,1.902 4.478,2.97 7.168,2.97 2.689,0 5.267,-1.067 7.167,-2.97 L 294.033,96.361 c 3.956,-3.956 3.956,-10.371 0,-14.328 z"
   id="path2"
   style="fill:#485fc7;fill-opacity:1" />
<text
   transform="translate(-35.64,-26.73)"
   style="font-style:normal;font-variant:normal;font-weight:600;font-stretch:normal;font-size:186.667px;line-height:1.25;font-family:'Zilla Slab';-inkscape-font-specification:'Zilla Slab, Semi-Bold';font-variant-ligatures:normal;font-variant-caps:normal;font-variant-numeric:normal;font-variant-east-asian:normal;white-space:pre;shape-inside:url(#rect848);fill:#000000;fill-opacity:1;stroke:none;"
   id="text846"
   xml:space="preserve"><tspan
     x="350.45898"
     y="236.18172"><tspan
       style="font-style:normal;font-variant:normal;font-weight:bold;font-stretch:normal;font-size:186.667px;font-family:'Zilla Slab';-inkscape-font-specification:'Zilla Slab, Bold';font-variant-ligatures:normal;font-variant-caps:normal;font-variant-numeric:normal;font-variant-east-asian:normal">TaskComplete</tspan></tspan></text></g>
<g
   id="g6"
   transform="translate(1.2501185e-4,-24.362)">
</g>
<g
   id="g8"
   transform="translate(1.2501185e-4,-24.362)">
</g>
<g
   id="g10"
   transform="translate(1.2501185e-4,-24.362)">
</g>
<g
   id="g12"
   transform="translate(1.2501185e-4,-24.362)">
</g>
<g
   id="g14"
   transform="translate(1.2501185e-4,-24.362)">
</g>
<g
   id="g16"
   transform="translate(1.2501185e-4,-24.362)">
</g>
<g
   id="g18"
   transform="translate(1.2501185e-4,-24.362)">
</g>
<g
   id="g20"
   transform="translate(1.2501185e-4,-24.362)">
</g>
<g
   id="g22"
   transform="translate(1.2501185e-4,-24.362)">
</g>
<g
   id="g24"
   transform="translate(1.2501185e-4,-24.362)">
</g>
<g
   id="g26"
   transform="translate(1.2501185e-4,-24.362)">
</g>
<g
   id="g28"
   transform="translate(1.2501185e-4,-24.362)">
</g>
<g
   id="g30"
   transform="translate(1.2501185e-4,-24.362)">
</g>
<g
   id="g32"
   transform="translate(1.2501185e-4,-24.362)">
</g>
<g
   id="g34"
   transform="translate(1.2501185e-4,-24.362)">
</g>
</svg>
